# xmcd
#
# Track frame offsets: 
#        150
#        23125
#        43250
#        63251
#        84441
#        110779
#        134235
#        155852
#        184114
#        206839
#        233657
#        262844
#
# Disc length: 3814 seconds
#
# Revision: 1
# Processed by: cddbd v1.5.2PL0 Copyright (c) Steve Scherf et al.
# Submitted via: ExactAudioCopy v0.99pb5
#
DISCID=ae0ee40c
DTITLE=PUPY Y LOS QUE SON SON - Siempre
DYEAR=2012
DGENRE=Salsa
TTITLE0=Esta es mi música
TTITLE1=Pirolo
TTITLE2=Oh No!
TTITLE3=Ayúdame Julito
TTITLE4=No te dejé por mala
TTITLE5=La duda de Belén
TTITLE6=La batea
TTITLE7=Pareca mentira
TTITLE8=El final del noveno
TTITLE9=Ni bombones ni caramelos
TTITLE10=Vino a comerse La Habana
TTITLE11=Un loco con una Moto
EXTD=YEAR: 2012
EXTT0=
EXTT1=
EXTT2=
EXTT3=
EXTT4=
EXTT5=
EXTT6=
EXTT7=
EXTT8=
EXTT9=
EXTT10=
EXTT11=
PLAYORDER=
